<?xml version="1.0" standalone="no"?>
<!DOCTYPE svg PUBLIC "-//W3C//DTD SVG 20010904//EN"
 "http://www.w3.org/TR/2001/REC-SVG-20010904/DTD/svg10.dtd">
<svg version="1.0" xmlns="http://www.w3.org/2000/svg"
 width="640.000000pt" height="1280.000000pt" viewBox="0 0 640.000000 1280.000000"
 preserveAspectRatio="xMidYMid meet">
<metadata>
Created by potrace 1.15, written by Peter Selinger 2001-2017
</metadata>
<g transform="translate(0.000000,1280.000000) scale(0.100000,-0.100000)"
fill="#000000" stroke="none">
<path d="M2670 12340 l0 -460 -460 0 -460 0 0 -510 0 -510 460 0 460 0 0 -414
0 -415 -740 -870 -740 -870 0 -238 0 -238 470 -547 c412 -480 467 -548 448
-552 -13 -3 -77 -10 -143 -17 -285 -27 -348 -58 -417 -204 -29 -61 -33 -80
-33 -150 0 -164 89 -278 250 -322 54 -14 289 -32 450 -33 123 -1 171 -15 167
-49 -7 -64 -409 -1816 -953 -4149 -66 -283 -143 -616 -169 -728 l-21 -90 -100
-24 c-246 -57 -326 -143 -359 -383 -5 -43 -10 -188 -10 -323 l0 -244 2430 0
2430 0 0 244 c0 261 -9 365 -41 461 -47 142 -135 205 -344 245 -60 11 -113 24
-116 28 -6 6 -142 572 -615 2562 -47 195 -114 479 -150 630 -36 151 -95 399
-130 550 -194 816 -292 1246 -284 1254 4 4 120 12 257 17 136 5 280 13 320 19
153 21 233 72 289 186 25 52 29 70 29 149 0 80 -3 97 -31 156 -66 138 -126
167 -400 194 -93 9 -179 19 -192 21 -19 4 37 74 448 552 l470 547 0 237 0 238
-725 852 -725 853 0 433 0 432 445 0 445 0 0 510 0 510 -442 2 -443 3 -3 458
-2 457 -510 0 -510 0 0 -460z"/>
</g>
</svg>
