<?xml version="1.0" standalone="no"?>
<!DOCTYPE svg PUBLIC "-//W3C//DTD SVG 20010904//EN"
 "http://www.w3.org/TR/2001/REC-SVG-20010904/DTD/svg10.dtd">
<svg version="1.0" xmlns="http://www.w3.org/2000/svg"
 width="1280.000000pt" height="1280.000000pt" viewBox="0 0 1280.000000 1280.000000"
 preserveAspectRatio="xMidYMid meet">
<metadata>
Created by potrace 1.15, written by Peter Selinger 2001-2017
</metadata>
<g transform="translate(0.000000,1280.000000) scale(0.100000,-0.100000)"
fill="#000000" stroke="none">
<path d="M6183 9760 c-140 -10 -133 5 -134 -279 -1 -130 -4 -246 -7 -259 -5
-17 -27 -31 -87 -55 -161 -65 -293 -158 -345 -243 -22 -35 -43 -43 -56 -22 -4
6 -10 127 -14 267 -6 225 -9 260 -25 291 -11 19 -25 66 -31 103 -14 77 -34
114 -70 127 -38 15 -131 12 -225 -6 -149 -28 -192 -56 -208 -138 -6 -28 -14
-211 -19 -406 -8 -308 -12 -360 -27 -389 -9 -19 -23 -53 -29 -75 -10 -33 -20
-46 -58 -66 -61 -34 -88 -58 -105 -98 -23 -56 -3 -104 81 -192 40 -41 83 -90
96 -108 12 -19 44 -47 70 -63 53 -32 59 -43 90 -155 28 -101 46 -135 125 -242
174 -234 196 -349 176 -926 -11 -341 -27 -582 -61 -951 -11 -115 -33 -374 -50
-575 -63 -759 -90 -999 -141 -1258 -62 -321 -108 -472 -190 -632 -79 -152
-137 -230 -200 -267 -144 -84 -200 -125 -289 -213 -341 -333 -465 -754 -285
-968 l25 -30 -57 -35 c-66 -40 -123 -97 -147 -144 -24 -47 -31 -143 -16 -198
45 -162 301 -273 835 -364 679 -116 1795 -143 2660 -66 803 72 1270 209 1356
399 22 48 25 139 7 198 -16 53 -85 129 -159 174 l-58 36 34 41 c52 61 70 124
70 247 0 117 -20 196 -80 327 -100 218 -328 463 -528 569 -88 46 -119 80 -200
214 -182 306 -270 730 -352 1700 -14 168 -37 436 -51 595 -74 860 -84 1026
-85 1426 -1 201 3 285 15 351 28 150 41 178 209 416 37 53 55 92 78 173 26 92
34 108 66 134 21 17 55 50 78 74 22 24 73 78 113 119 50 53 75 87 83 115 20
75 -8 125 -93 168 -32 16 -61 37 -64 47 -3 9 -17 46 -31 82 -25 64 -25 70 -32
435 -8 413 -10 426 -79 472 -73 48 -320 80 -380 49 -39 -20 -49 -38 -61 -116
-6 -34 -20 -83 -33 -109 -21 -43 -23 -63 -28 -298 -4 -214 -7 -255 -21 -268
-15 -15 -18 -14 -37 17 -66 107 -227 213 -424 281 -15 5 -17 32 -20 261 -4
313 6 294 -149 307 -118 9 -291 9 -426 -1z"/>
</g>
</svg>
